<svg viewBox="0 0 16 16" fill="currentColor" width="32" height="32" xmlns="http://www.w3.org/2000/svg" xmlns:xlink="http://www.w3.org/1999/xlink">
    <path d="M4.75 0A0.75 0.75 0 0 1 5.5 0.75V2h5V0.75a0.75 0.75 0 0 1 1.5 0V2h1.25C14.216 2 15 2.784 15 3.75v10.5A1.75 1.75 0 0 1 13.25 16H2.75A1.75 1.75 0 0 1 1 14.25V3.75C1 2.784 1.784 2 2.75 2H4V0.75A0.75 0.75 0 0 1 4.75 0zM2.5 7.5v6.75c0 0.138 0.112 0.25 0.25 0.25h10.5a0.25 0.25 0 0 0 0.25-0.25V7.5zM13.25 3.5H2.75A0.25 0.25 0 0 0 2.5 3.75V6h11V3.75a0.25 0.25 0 0 0-0.25-0.25z" />
</svg>