<svg viewBox="0 0 16 16" fill="currentColor" width="32" height="32" xmlns="http://www.w3.org/2000/svg" xmlns:xlink="http://www.w3.org/1999/xlink">
    <path d="M0 1.75C0 0.784 0.784 0 1.75 0h12.5C15.216 0 16 0.784 16 1.75v12.5A1.75 1.75 0 0 1 14.25 16H1.75A1.75 1.75 0 0 1 0 14.25zM1.75 1.5A0.25 0.25 0 0 0 1.5 1.75v12.5c0 0.138 0.112 0.25 0.25 0.25h12.5a0.25 0.25 0 0 0 0.25-0.25V1.75a0.25 0.25 0 0 0-0.25-0.25zM9.22 5.47a0.75 0.75 0 0 1 1.06 0l2 2a0.75 0.75 0 0 1 0 1.06l-2 2a0.749 0.749 0 0 1-1.275-0.326A0.749 0.749 0 0 1 9.22 9.47L10.69 8 9.22 6.53a0.75 0.75 0 0 1 0-1.06zM6.78 6.53 5.31 8 6.78 9.47a0.749 0.749 0 0 1-0.326 1.275 0.749 0.749 0 0 1-0.734-0.215l-2-2a0.75 0.75 0 0 1 0-1.06l2-2a0.751 0.751 0 0 1 1.042 0.018A0.751 0.751 0 0 1 6.78 6.53z" />
</svg>