<svg viewBox="0 0 16 16" fill="currentColor" width="32" height="32" xmlns="http://www.w3.org/2000/svg" xmlns:xlink="http://www.w3.org/1999/xlink">
    <path d="M4.8499 2.372C4.599 2.5168 4.3349 2.9164 4.3042 3.7879 4.2897 4.2018 3.9423 4.5256 3.5284 4.511 3.1144 4.4965 2.7906 4.1491 2.8052 3.7351 2.8427 2.6667 3.1806 1.6037 4.0999 1.0729 5.0218 0.5407 6.1148 0.7824 7.0613 1.2873 7.4267 1.4822 7.565 1.9366 7.37 2.302 7.175 2.6675 6.7207 2.8057 6.3552 2.6107 5.5818 2.1981 5.1016 2.2266 4.8499 2.372zM8.8714 3.6728c0.319-0.2642 0.7917-0.2199 1.056 0.0991 0.5544 0.6691 1.0862 1.4321 1.5689 2.2683 1.0403 1.8017 1.6817 3.6476 1.8546 5.196 0.0863 0.7729 0.0599 1.5084-0.1206 2.1392-0.1819 0.6356-0.5362 1.2109-1.1304 1.5539-0.7189 0.4151-1.549 0.3562-2.3088 0.0796-0.7624-0.2776-1.5472-0.8033-2.2952-1.4861-0.306-0.2793-0.3276-0.7537-0.0483-1.0596 0.2792-0.3059 0.7536-0.3276 1.0595-0.0483 0.6591 0.6016 1.2786 0.9956 1.7972 1.1845 0.5214 0.1898 0.8494 0.1442 1.0456 0.0309 0.1644-0.0949 0.3298-0.2883 0.4383-0.6676 0.1099-0.384 0.1446-0.9098 0.072-1.5601-0.145-1.2981-0.7011-2.9465-1.6629-4.6124-0.4424-0.7662-0.9265-1.4597-1.425-2.0613-0.2642-0.319-0.2199-0.7918 0.0991-1.0561z" />
    <path d="M14.5 8.2056c0-0.2898-0.214-0.7183-0.9534-1.1805-0.3512-0.2196-0.4579-0.6823-0.2383-1.0336 0.2196-0.3512 0.6823-0.4579 1.0335-0.2383C15.2483 6.3199 16 7.1441 16 8.2056c0 1.0645-0.7558 1.8902-1.6663 2.4574-0.3516 0.219-0.8142 0.1116-1.0332-0.24s-0.1115-0.8141 0.24-1.0332C14.2846 8.9264 14.5 8.4962 14.5 8.2056zM11.3626 11.0378c0.0694 0.4084-0.2054 0.7957-0.6138 0.8651C9.8922 12.0484 8.9655 12.1274 8 12.1274c-2.0805 0-3.9998-0.3674-5.4271-0.9919-0.7126-0.3117-1.3363-0.7023-1.7924-1.174C0.321 9.4862 0 8.8917 0 8.2056 0 7.3755 0.4661 6.686 1.0855 6.1664 1.7071 5.6449 2.5547 5.2281 3.5201 4.9216c0.3948-0.1253 0.8165 0.0932 0.9418 0.488 0.1253 0.3948-0.0932 0.8164-0.488 0.9417-0.8506 0.27-1.5015 0.6095-1.9244 0.9642C1.6244 7.6722 1.5 7.979 1.5 8.2056c0 0.1898 0.0848 0.4297 0.359 0.7133 0.2776 0.2872 0.7156 0.5801 1.3151 0.8424C4.3708 10.2848 6.0764 10.6274 8 10.6274c0.8848 0 1.7273-0.0725 2.4976-0.2034 0.4084-0.0693 0.7957 0.2055 0.865 0.6138z" />
    <path d="M4.8719 13.6303c0.251 0.1449 0.729 0.1738 1.499-0.2354 0.3658-0.1944 0.8199-0.0554 1.0143 0.3103 0.1944 0.3658 0.0554 0.8199-0.3104 1.0143-0.944 0.5016-2.0336 0.7406-2.9529 0.2098-0.9219-0.5322-1.2591-1.5997-1.295-2.6718-0.0139-0.414 0.3104-0.7608 0.7244-0.7747 0.414-0.0139 0.7608 0.3104 0.7747 0.7244 0.0294 0.8762 0.2942 1.2778 0.5459 1.4231zM3.9878 9.4971C3.5994 9.353 3.4015 8.9214 3.5456 8.533 3.8479 7.7184 4.2427 6.8763 4.7255 6.0402 5.7657 4.2385 7.0436 2.76 8.2981 1.8361 8.9243 1.3749 9.5744 1.03 10.211 0.8709c0.6414-0.1603 1.3168-0.141 1.9109 0.202 0.7189 0.4151 1.083 1.1634 1.2233 1.9597 0.1408 0.7991 0.078 1.7415-0.1394 2.7308-0.0889 0.4046-0.4889 0.6605-0.8934 0.5716-0.4046-0.0889-0.6605-0.4889-0.5716-0.8935 0.1914-0.8716 0.2229-1.605 0.1272-2.1486-0.0963-0.5465-0.2999-0.8077-0.4961-0.921-0.1643-0.0949-0.4145-0.1414-0.7972-0.0458-0.3876 0.0969-0.8603 0.3298-1.3871 0.7178-1.0518 0.7746-2.2013 2.0804-3.1631 3.7463-0.4424 0.7662-0.8008 1.5321-1.0726 2.2647-0.1442 0.3883-0.5758 0.5863-0.9641 0.4422z" />
    <path d="M9.4593 8.0662c0 0.7507-0.6087 1.3594-1.3594 1.3594-0.7508 0-1.3594-0.6087-1.3594-1.3594 0-0.7508 0.6086-1.3594 1.3594-1.3594 0.7507 0 1.3594 0.6086 1.3594 1.3594z" />
</svg>